<?xml version="1.0" encoding="UTF-8" standalone="no"?>
<!-- Created with Inkscape (http://www.inkscape.org/) -->

<svg
   width="24.936995mm"
   height="11.623mm"
   viewBox="0 0 24.936995 11.623"
   version="1.1"
   id="svg1084"
   sodipodi:docname="range-calc.svg"
   inkscape:export-filename="bitmap.png"
   inkscape:export-xdpi="96"
   inkscape:export-ydpi="96"
   inkscape:version="1.2.2 (b0a8486541, 2022-12-01)"
   xmlns:inkscape="http://www.inkscape.org/namespaces/inkscape"
   xmlns:sodipodi="http://sodipodi.sourceforge.net/DTD/sodipodi-0.dtd"
   xmlns="http://www.w3.org/2000/svg"
   xmlns:svg="http://www.w3.org/2000/svg">
  <sodipodi:namedview
     id="namedview1086"
     pagecolor="#ffffff"
     bordercolor="#666666"
     borderopacity="1.0"
     inkscape:showpageshadow="2"
     inkscape:pageopacity="0.0"
     inkscape:pagecheckerboard="0"
     inkscape:deskcolor="#d1d1d1"
     inkscape:document-units="mm"
     showgrid="false"
     inkscape:zoom="1.9099422"
     inkscape:cx="-3.4032443"
     inkscape:cy="62.567337"
     inkscape:window-width="1920"
     inkscape:window-height="1013"
     inkscape:window-x="0"
     inkscape:window-y="0"
     inkscape:window-maximized="1"
     inkscape:current-layer="layer1" />
  <defs
     id="defs1081">
    <clipPath
       id="clipPath9890">
      <path
         clip-rule="nonzero"
         d="m 44,15 h 5 v 6.683594 h -5 z m 0,0"
         id="path4613" />
    </clipPath>
    <clipPath
       id="clipPath5357">
      <path
         clip-rule="nonzero"
         d="m 51,17 h 5 v 4.683594 h -5 z m 0,0"
         id="path2270" />
    </clipPath>
    <clipPath
       id="clipPath214">
      <path
         clip-rule="nonzero"
         d="m 58,17 h 5 v 4.683594 h -5 z m 0,0"
         id="path5149" />
    </clipPath>
    <clipPath
       id="clipPath9104">
      <path
         clip-rule="nonzero"
         d="m 55,14 h 5 v 7.046875 h -5 z m 0,0"
         id="path6464" />
    </clipPath>
    <clipPath
       id="clipPath4888">
      <path
         clip-rule="nonzero"
         d="m 69,16 h 5 v 5.046875 h -5 z m 0,0"
         id="path6088" />
    </clipPath>
    <clipPath
       id="clipPath4529">
      <path
         clip-rule="nonzero"
         d="m 60,14 h 5 v 7.046875 h -5 z m 0,0"
         id="path375" />
    </clipPath>
    <clipPath
       id="clipPath9469">
      <path
         clip-rule="nonzero"
         d="m 65,16 h 5 v 5.046875 h -5 z m 0,0"
         id="path8586" />
    </clipPath>
    <clipPath
       id="clipPath8723">
      <path
         clip-rule="nonzero"
         d="m 56,14 h 5 v 7.046875 h -5 z m 0,0"
         id="path739" />
    </clipPath>
    <clipPath
       id="clipPath5076">
      <path
         clip-rule="nonzero"
         d="m 61,16 h 5 v 5.046875 h -5 z m 0,0"
         id="path633" />
    </clipPath>
    <clipPath
       id="clipPath5717">
      <path
         clip-rule="nonzero"
         d="m 41,15 h 5 v 6.683594 h -5 z m 0,0"
         id="path5844" />
    </clipPath>
    <clipPath
       id="clipPath5429">
      <path
         clip-rule="nonzero"
         d="m 46,17 h 5 v 4.683594 h -5 z m 0,0"
         id="path7754" />
    </clipPath>
    <clipPath
       id="clipPath1650">
      <path
         clip-rule="nonzero"
         d="m 44,13 h 5 v 7.382812 h -5 z m 0,0"
         id="path3348" />
    </clipPath>
    <clipPath
       id="clipPath4635">
      <path
         clip-rule="nonzero"
         d="m 49,15 h 5 v 5.382812 h -5 z m 0,0"
         id="path5127" />
    </clipPath>
    <clipPath
       id="clipPath5221">
      <path
         clip-rule="nonzero"
         d="m 51,16 h 6 v 8.457031 h -6 z m 0,0"
         id="path603" />
    </clipPath>
    <clipPath
       id="clipPath9935">
      <path
         clip-rule="nonzero"
         d="m 56,19 h 6 v 5.457031 h -6 z m 0,0"
         id="path7594" />
    </clipPath>
  </defs>
  <g
     inkscape:label="Layer 1"
     inkscape:groupmode="layer"
     id="layer1"
     transform="translate(-78.754001,-168.383)">
    <g
       inkscape:label=""
       transform="translate(78.754,168.383)"
       id="g2689">
      <g
         fill="#000000"
         fill-opacity="1"
         id="g2645"
         transform="matrix(0.352778,0,0,0.352778,-0.198437,-0.00485072)">
        <g
           id="g2643"
           transform="translate(0,16.257)">
          <path
             d="M 1.875,-0.890625 C 1.765625,-0.46875 1.75,-0.34375 0.90625,-0.34375 c -0.21875,0 -0.34375,0 -0.34375,0.21875 C 0.5625,0 0.640625,0 0.875,0 h 3.78125 c 2.421875,0 4.78125,-2.5 4.78125,-5.15625 0,-1.734375 -1.03125,-3 -2.75,-3 H 2.859375 c -0.234375,0 -0.34375,0 -0.34375,0.21875 0,0.125 0.109375,0.125 0.296875,0.125 0.71875,0 0.71875,0.09375 0.71875,0.21875 0,0.03125 0,0.09375 -0.046875,0.28125 z M 4.40625,-7.34375 C 4.5,-7.796875 4.546875,-7.8125 5.015625,-7.8125 h 1.3125 c 1.125,0 2.15625,0.609375 2.15625,2.25 0,0.609375 -0.234375,2.6875 -1.390625,4 -0.34375,0.390625 -1.25,1.21875 -2.625,1.21875 H 3.109375 c -0.171875,0 -0.1875,0 -0.265625,-0.015625 -0.125,-0.015625 -0.140625,-0.03125 -0.140625,-0.125 0,-0.09375 0.015625,-0.15625 0.046875,-0.265625 z m 0,0"
             id="path2641" />
        </g>
      </g>
      <g
         fill="#000000"
         fill-opacity="1"
         id="g2651"
         transform="matrix(0.352778,0,0,0.352778,-0.198437,-0.00485072)">
        <g
           id="g2649"
           transform="translate(13.365,16.257)">
          <path
             d="m 8.0625,-3.875 c 0.171875,0 0.390625,0 0.390625,-0.21875 C 8.453125,-4.3125 8.25,-4.3125 8.0625,-4.3125 H 1.03125 c -0.171875,0 -0.390625,0 -0.390625,0.21875 0,0.21875 0.203125,0.21875 0.390625,0.21875 z m 0,2.21875 c 0.171875,0 0.390625,0 0.390625,-0.203125 C 8.453125,-2.09375 8.25,-2.09375 8.0625,-2.09375 H 1.03125 c -0.171875,0 -0.390625,0 -0.390625,0.21875 0,0.21875 0.203125,0.21875 0.390625,0.21875 z m 0,0"
             id="path2647" />
        </g>
      </g>
      <g
         fill="#000000"
         fill-opacity="1"
         id="g49"
         transform="matrix(0.352778,0,0,0.352778,-0.198437,-0.00485072)">
        <g
           id="use47"
           transform="translate(25.793627,16.257)">
          <path
             d="M 5.265625,-2.015625 H 5 c -0.046875,0.203125 -0.140625,0.875 -0.25,1.0625 C 4.65625,-0.84375 3.984375,-0.84375 3.625,-0.84375 H 1.40625 c 0.328125,-0.28125 1.0625,-1.046875 1.359375,-1.328125 1.828125,-1.671875 2.5,-2.296875 2.5,-3.484375 0,-1.375 -1.09375,-2.296875 -2.484375,-2.296875 -1.375,0 -2.203125,1.1875 -2.203125,2.21875 0,0.609375 0.53125,0.609375 0.5625,0.609375 0.265625,0 0.5625,-0.1875 0.5625,-0.5625 0,-0.34375 -0.21875,-0.5625 -0.5625,-0.5625 -0.09375,0 -0.125,0 -0.15625,0.015625 0.21875,-0.8125 0.875,-1.375 1.640625,-1.375 1.015625,0 1.640625,0.859375 1.640625,1.953125 C 4.265625,-4.640625 3.6875,-3.75 3,-2.984375 L 0.578125,-0.28125 V 0 h 4.375 z m 0,0"
             id="path2653" />
        </g>
      </g>
      <g
         fill="#000000"
         fill-opacity="1"
         id="g55"
         transform="matrix(0.352778,0,0,0.352778,-0.198437,-0.00485072)">
        <g
           id="g2659"
           transform="translate(31.643999,11.919)">
          <path
             d="m 2.5,-5.078125 c 0,-0.21875 -0.015625,-0.21875 -0.234375,-0.21875 -0.328125,0.3125 -0.75,0.5 -1.5,0.5 v 0.265625 c 0.21875,0 0.640625,0 1.109375,-0.203125 v 4.078125 c 0,0.296875 -0.03125,0.390625 -0.78125,0.390625 H 0.8125 V 0 c 0.328125,-0.03125 1.015625,-0.03125 1.375,-0.03125 0.359375,0 1.046875,0 1.375,0.03125 V -0.265625 H 3.28125 c -0.75,0 -0.78125,-0.09375 -0.78125,-0.390625 z m 0,0"
             id="path2657" />
        </g>
        <g
           id="use53"
           transform="translate(35.878513,11.919)">
          <path
             d="m 1.09375,-2.640625 c 0,-0.65625 0.0625,-1.234375 0.34375,-1.71875 0.25,-0.40625 0.65625,-0.734375 1.15625,-0.734375 0.15625,0 0.515625,0.03125 0.703125,0.296875 C 2.9375,-4.765625 2.90625,-4.5 2.90625,-4.421875 c 0,0.25 0.1875,0.375 0.375,0.375 0.140625,0 0.375,-0.078125 0.375,-0.390625 0,-0.46875 -0.359375,-0.859375 -1.078125,-0.859375 -1.109375,0 -2.234375,1.046875 -2.234375,2.765625 0,2.171875 1.015625,2.703125 1.78125,2.703125 0.390625,0 0.796875,-0.109375 1.15625,-0.453125 C 3.609375,-0.59375 3.875,-0.921875 3.875,-1.625 c 0,-1.03125 -0.796875,-1.765625 -1.671875,-1.765625 -0.578125,0 -0.921875,0.359375 -1.109375,0.75 z m 1.03125,2.5625 c -0.421875,0 -0.6875,-0.28125 -0.796875,-0.515625 C 1.140625,-0.953125 1.125,-1.484375 1.125,-1.796875 c 0,-0.78125 0.421875,-1.375 1.046875,-1.375 0.390625,0 0.640625,0.203125 0.78125,0.484375 C 3.125,-2.390625 3.125,-2.03125 3.125,-1.625 c 0,0.40625 0,0.75 -0.15625,1.046875 -0.21875,0.359375 -0.484375,0.5 -0.84375,0.5 z m 0,0"
             id="path2661" />
        </g>
      </g>
      <g
         fill="#000000"
         fill-opacity="1"
         id="g59"
         transform="matrix(0.352778,0,0,0.352778,-0.198437,-0.00485072)">
        <g
           id="use57"
           transform="translate(41.806,8.1700001)">
          <path
             d="M 7.40625,-6.84375 C 7.8125,-7.484375 8.171875,-7.765625 8.78125,-7.8125 8.90625,-7.828125 9,-7.828125 9,-8.046875 9,-8.09375 8.984375,-8.15625 8.875,-8.15625 c -0.21875,0 -0.734375,0.015625 -0.953125,0.015625 -0.34375,0 -0.703125,-0.015625 -1.03125,-0.015625 -0.09375,0 -0.21875,0 -0.21875,0.21875 0,0.109375 0.109375,0.125 0.15625,0.125 0.4375,0.03125 0.484375,0.25 0.484375,0.390625 0,0.171875 -0.171875,0.453125 -0.171875,0.46875 L 3.375,-1 2.546875,-7.453125 c 0,-0.34375 0.625,-0.359375 0.75,-0.359375 0.1875,0 0.28125,0 0.28125,-0.234375 0,-0.109375 -0.125,-0.109375 -0.15625,-0.109375 -0.203125,0 -0.453125,0.015625 -0.65625,0.015625 h -0.65625 c -0.875,0 -1.234375,-0.015625 -1.25,-0.015625 -0.078125,0 -0.21875,0 -0.21875,0.203125 0,0.140625 0.09375,0.140625 0.28125,0.140625 0.609375,0 0.640625,0.109375 0.6875,0.40625 l 0.953125,7.375 C 2.59375,0.21875 2.59375,0.25 2.765625,0.25 2.90625,0.25 2.96875,0.21875 3.078125,0.03125 Z m 0,0"
             id="path2665" />
        </g>
      </g>
      <g
         fill="#000000"
         fill-opacity="1"
         id="g2672"
         transform="matrix(0.352778,0,0,0.352778,-0.198437,-0.00485072)">
        <g
           id="g2670"
           transform="translate(53.888,8.1700001)">
          <path
             d="M 4.765625,-2.765625 H 8.0625 c 0.171875,0 0.390625,0 0.390625,-0.203125 0,-0.234375 -0.203125,-0.234375 -0.390625,-0.234375 H 4.765625 V -6.5 c 0,-0.171875 0,-0.390625 -0.21875,-0.390625 -0.21875,0 -0.21875,0.203125 -0.21875,0.390625 v 3.296875 H 1.03125 c -0.171875,0 -0.390625,0 -0.390625,0.21875 0,0.21875 0.203125,0.21875 0.390625,0.21875 H 4.328125 V 0.53125 c 0,0.171875 0,0.390625 0.21875,0.390625 0.21875,0 0.21875,-0.203125 0.21875,-0.390625 z m 0,0"
             id="path111" />
        </g>
      </g>
      <g
         fill="#000000"
         fill-opacity="1"
         id="g2677"
         transform="matrix(0.352778,0,0,0.352778,-0.198437,-0.00485072)">
        <g
           id="g2675"
           transform="translate(65.649002,8.1700001)">
          <path
             d="m 4.65625,-4.890625 c -0.375,0.078125 -0.5625,0.34375 -0.5625,0.59375 0,0.296875 0.21875,0.390625 0.390625,0.390625 0.328125,0 0.609375,-0.296875 0.609375,-0.640625 0,-0.390625 -0.375,-0.71875 -0.96875,-0.71875 -0.484375,0 -1.03125,0.203125 -1.53125,0.9375 -0.078125,-0.625 -0.5625,-0.9375 -1.046875,-0.9375 -0.453125,0 -0.703125,0.359375 -0.84375,0.609375 -0.203125,0.4375 -0.375,1.15625 -0.375,1.21875 0,0.046875 0.046875,0.109375 0.125,0.109375 0.09375,0 0.109375,-0.015625 0.1875,-0.296875 0.171875,-0.71875 0.40625,-1.40625 0.875,-1.40625 0.296875,0 0.375,0.203125 0.375,0.546875 0,0.265625 -0.125,0.734375 -0.203125,1.109375 l -0.34375,1.28125 c -0.046875,0.234375 -0.171875,0.765625 -0.234375,0.984375 -0.078125,0.3125 -0.21875,0.875 -0.21875,0.9375 0,0.15625 0.140625,0.296875 0.3125,0.296875 0.140625,0 0.359375,-0.09375 0.4375,-0.328125 C 1.671875,-0.296875 2.109375,-2.109375 2.1875,-2.375 2.25,-2.640625 2.3125,-2.890625 2.375,-3.15625 2.421875,-3.328125 2.46875,-3.515625 2.515625,-3.671875 2.546875,-3.78125 2.875,-4.359375 3.171875,-4.625 3.3125,-4.75 3.625,-5.03125 4.109375,-5.03125 4.296875,-5.03125 4.5,-5 4.65625,-4.890625 Z m 0,0"
             id="path115" />
        </g>
      </g>
      <path
         fill="none"
         stroke-width="0.478"
         stroke-linecap="butt"
         stroke-linejoin="miter"
         stroke="#000000"
         stroke-opacity="1"
         stroke-miterlimit="10"
         d="M 41.242187,13.255781 H 70.6875"
         id="path2679"
         transform="scale(0.352778)" />
      <g
         clip-path="url(#clipPath5221)"
         id="g75"
         transform="matrix(0.352778,0,0,0.352778,-0.198437,-0.00485072)">
        <g
           fill="#000000"
           fill-opacity="1"
           id="g73">
          <g
             id="use71"
             transform="translate(50.800999,24.458)">
            <path
               d="M 5.265625,-2.015625 H 5 c -0.046875,0.203125 -0.140625,0.875 -0.25,1.0625 C 4.65625,-0.84375 3.984375,-0.84375 3.625,-0.84375 H 1.40625 c 0.328125,-0.28125 1.0625,-1.046875 1.359375,-1.328125 1.828125,-1.671875 2.5,-2.296875 2.5,-3.484375 0,-1.375 -1.09375,-2.296875 -2.484375,-2.296875 -1.375,0 -2.203125,1.1875 -2.203125,2.21875 0,0.609375 0.53125,0.609375 0.5625,0.609375 0.265625,0 0.5625,-0.1875 0.5625,-0.5625 0,-0.34375 -0.21875,-0.5625 -0.5625,-0.5625 -0.09375,0 -0.125,0 -0.15625,0.015625 0.21875,-0.8125 0.875,-1.375 1.640625,-1.375 1.015625,0 1.640625,0.859375 1.640625,1.953125 C 4.265625,-4.640625 3.6875,-3.75 3,-2.984375 L 0.578125,-0.28125 V 0 h 4.375 z m 0,0"
               id="path119" />
          </g>
        </g>
      </g>
      <g
         clip-path="url(#clipPath9935)"
         id="g81"
         transform="matrix(0.352778,0,0,0.352778,-0.198437,-0.00485072)">
        <g
           fill="#000000"
           fill-opacity="1"
           id="g79">
          <g
             id="use77"
             transform="translate(56.653999,24.458)">
            <path
               d="m 4.65625,-4.890625 c -0.375,0.078125 -0.5625,0.34375 -0.5625,0.59375 0,0.296875 0.21875,0.390625 0.390625,0.390625 0.328125,0 0.609375,-0.296875 0.609375,-0.640625 0,-0.390625 -0.375,-0.71875 -0.96875,-0.71875 -0.484375,0 -1.03125,0.203125 -1.53125,0.9375 -0.078125,-0.625 -0.5625,-0.9375 -1.046875,-0.9375 -0.453125,0 -0.703125,0.359375 -0.84375,0.609375 -0.203125,0.4375 -0.375,1.15625 -0.375,1.21875 0,0.046875 0.046875,0.109375 0.125,0.109375 0.09375,0 0.109375,-0.015625 0.1875,-0.296875 0.171875,-0.71875 0.40625,-1.40625 0.875,-1.40625 0.296875,0 0.375,0.203125 0.375,0.546875 0,0.265625 -0.125,0.734375 -0.203125,1.109375 l -0.34375,1.28125 c -0.046875,0.234375 -0.171875,0.765625 -0.234375,0.984375 -0.078125,0.3125 -0.21875,0.875 -0.21875,0.9375 0,0.15625 0.140625,0.296875 0.3125,0.296875 0.140625,0 0.359375,-0.09375 0.4375,-0.328125 C 1.671875,-0.296875 2.109375,-2.109375 2.1875,-2.375 2.25,-2.640625 2.3125,-2.890625 2.375,-3.15625 2.421875,-3.328125 2.46875,-3.515625 2.515625,-3.671875 2.546875,-3.78125 2.875,-4.359375 3.171875,-4.625 3.3125,-4.75 3.625,-5.03125 4.109375,-5.03125 4.296875,-5.03125 4.5,-5 4.65625,-4.890625 Z m 0,0"
               id="path123" />
          </g>
        </g>
      </g>
    </g>
  </g>
</svg>
